<?xml version="1.0" encoding="UTF-8" standalone="no"?>
<!-- Created with Inkscape (http://www.inkscape.org/) -->
<svg
   xmlns:dc="http://purl.org/dc/elements/1.1/"
   xmlns:cc="http://creativecommons.org/ns#"
   xmlns:rdf="http://www.w3.org/1999/02/22-rdf-syntax-ns#"
   xmlns:svg="http://www.w3.org/2000/svg"
   xmlns="http://www.w3.org/2000/svg"
   xmlns:xlink="http://www.w3.org/1999/xlink"
   xmlns:sodipodi="http://sodipodi.sourceforge.net/DTD/sodipodi-0.dtd"
   xmlns:inkscape="http://www.inkscape.org/namespaces/inkscape"
   width="128"
   height="128"
   id="svg2"
   sodipodi:version="0.32"
   inkscape:version="0.46"
   version="1.0"
   enable-background="new"
   sodipodi:docname="vim.svg"
   inkscape:output_extension="org.inkscape.output.svg.inkscape">
  <defs
     id="defs4">
    <linearGradient
       inkscape:collect="always"
       id="linearGradient3821">
      <stop
         style="stop-color:#000000;stop-opacity:1;"
         offset="0"
         id="stop3823" />
      <stop
         style="stop-color:#000000;stop-opacity:0;"
         offset="1"
         id="stop3825" />
    </linearGradient>
    <linearGradient
       id="linearGradient3617">
      <stop
         id="stop3619"
         offset="0"
         style="stop-color:#70e000;stop-opacity:1;" />
      <stop
         style="stop-color:#38c00b;stop-opacity:1;"
         offset="0.5"
         id="stop3627" />
      <stop
         style="stop-color:#00a116;stop-opacity:1;"
         offset="1"
         id="stop3625" />
    </linearGradient>
    <linearGradient
       id="linearGradient3590">
      <stop
         id="stop3592"
         offset="0"
         style="stop-color:#b5bac0;stop-opacity:1;" />
      <stop
         id="stop3594"
         offset="1"
         style="stop-color:#e6ebed;stop-opacity:1;" />
    </linearGradient>
    <linearGradient
       inkscape:collect="always"
       id="linearGradient3566">
      <stop
         style="stop-color:#003b0f;stop-opacity:1;"
         offset="0"
         id="stop3568" />
      <stop
         style="stop-color:#003b0f;stop-opacity:0;"
         offset="1"
         id="stop3570" />
    </linearGradient>
    <linearGradient
       id="linearGradient3333">
      <stop
         style="stop-color:#8f97a0;stop-opacity:1;"
         offset="0"
         id="stop3335" />
      <stop
         style="stop-color:#c4cfd3;stop-opacity:1;"
         offset="1"
         id="stop3337" />
    </linearGradient>
    <linearGradient
       inkscape:collect="always"
       id="linearGradient3316">
      <stop
         style="stop-color:#ffffff;stop-opacity:1;"
         offset="0"
         id="stop3318" />
      <stop
         style="stop-color:#ffffff;stop-opacity:0;"
         offset="1"
         id="stop3320" />
    </linearGradient>
    <linearGradient
       id="linearGradient3190">
      <stop
         style="stop-color:#001233;stop-opacity:1;"
         offset="0"
         id="stop3192" />
      <stop
         style="stop-color:#000000;stop-opacity:0"
         offset="1"
         id="stop3194" />
    </linearGradient>
    <linearGradient
       id="linearGradient3292">
      <stop
         style="stop-color:#00a116;stop-opacity:1;"
         offset="0"
         id="stop3294" />
      <stop
         style="stop-color:#70e000;stop-opacity:1;"
         offset="1"
         id="stop3296" />
    </linearGradient>
    <inkscape:perspective
       sodipodi:type="inkscape:persp3d"
       inkscape:vp_x="0 : 526.18109 : 1"
       inkscape:vp_y="0 : 1000 : 0"
       inkscape:vp_z="744.09448 : 526.18109 : 1"
       inkscape:persp3d-origin="372.04724 : 350.78739 : 1"
       id="perspective10" />
    <inkscape:perspective
       id="perspective2481"
       inkscape:persp3d-origin="372.04724 : 350.78739 : 1"
       inkscape:vp_z="744.09448 : 526.18109 : 1"
       inkscape:vp_y="0 : 1000 : 0"
       inkscape:vp_x="0 : 526.18109 : 1"
       sodipodi:type="inkscape:persp3d" />
    <linearGradient
       inkscape:collect="always"
       xlink:href="#linearGradient3292"
       id="linearGradient3298"
       x1="101.86128"
       y1="32.016872"
       x2="57.746056"
       y2="-40.775494"
       gradientUnits="userSpaceOnUse"
       gradientTransform="matrix(0.8550252,0.8550252,-0.8550252,0.8550252,-15.285955,-1.1121385)" />
    <linearGradient
       inkscape:collect="always"
       xlink:href="#linearGradient3190"
       id="linearGradient3196"
       x1="32"
       y1="-40"
       x2="52"
       y2="-37.368099"
       gradientUnits="userSpaceOnUse"
       gradientTransform="translate(40,-80)" />
    <linearGradient
       inkscape:collect="always"
       xlink:href="#linearGradient3292"
       id="linearGradient3262"
       gradientUnits="userSpaceOnUse"
       gradientTransform="matrix(1.089385,1.089385,-1.089385,1.089385,-10.053811,-62.768678)"
       x1="118.06142"
       y1="27.55175"
       x2="75.719574"
       y2="-26.134815" />
    <filter
       inkscape:collect="always"
       id="filter3300">
      <feGaussianBlur
         inkscape:collect="always"
         stdDeviation="1.5555556"
         id="feGaussianBlur3302" />
    </filter>
    <linearGradient
       inkscape:collect="always"
       xlink:href="#linearGradient3333"
       id="linearGradient3339"
       x1="46.187115"
       y1="84"
       x2="109.27302"
       y2="-58.003067"
       gradientUnits="userSpaceOnUse" />
    <linearGradient
       inkscape:collect="always"
       xlink:href="#linearGradient3190"
       id="linearGradient3343"
       gradientUnits="userSpaceOnUse"
       x1="32"
       y1="-40"
       x2="45.319973"
       y2="-32.168442"
       gradientTransform="translate(20,-60)" />
    <linearGradient
       inkscape:collect="always"
       xlink:href="#linearGradient3190"
       id="linearGradient3353"
       x1="32"
       y1="-40"
       x2="50.27454"
       y2="-33.315952"
       gradientUnits="userSpaceOnUse" />
    <linearGradient
       inkscape:collect="always"
       xlink:href="#linearGradient3190"
       id="linearGradient3358"
       gradientUnits="userSpaceOnUse"
       x1="32"
       y1="-40"
       x2="50.27454"
       y2="-33.315952"
       gradientTransform="translate(60,-4)" />
    <linearGradient
       inkscape:collect="always"
       xlink:href="#linearGradient3316"
       id="linearGradient3363"
       gradientUnits="userSpaceOnUse"
       x1="72"
       y1="-4"
       x2="52.863152"
       y2="-3.7288702" />
    <linearGradient
       inkscape:collect="always"
       xlink:href="#linearGradient3190"
       id="linearGradient3367"
       gradientUnits="userSpaceOnUse"
       x1="61.553158"
       y1="84.324738"
       x2="57.171486"
       y2="43.655247" />
    <filter
       inkscape:collect="always"
       id="filter3482">
      <feGaussianBlur
         inkscape:collect="always"
         stdDeviation="1.5476302"
         id="feGaussianBlur3484" />
    </filter>
    <filter
       inkscape:collect="always"
       id="filter3504">
      <feGaussianBlur
         inkscape:collect="always"
         stdDeviation="0.9868894"
         id="feGaussianBlur3506" />
    </filter>
    <filter
       inkscape:collect="always"
       id="filter3558"
       x="-0.059937343"
       width="1.1198747"
       y="-0.11907055"
       height="1.2381411">
      <feGaussianBlur
         inkscape:collect="always"
         stdDeviation="1.4896158"
         id="feGaussianBlur3560" />
    </filter>
    <filter
       inkscape:collect="always"
       id="filter3562">
      <feGaussianBlur
         inkscape:collect="always"
         stdDeviation="1.4896158"
         id="feGaussianBlur3564" />
    </filter>
    <linearGradient
       inkscape:collect="always"
       xlink:href="#linearGradient3566"
       id="linearGradient3572"
       x1="104.19862"
       y1="60.151062"
       x2="113.19117"
       y2="22.257961"
       gradientUnits="userSpaceOnUse" />
    <linearGradient
       inkscape:collect="always"
       xlink:href="#linearGradient3566"
       id="linearGradient3574"
       x1="53.297546"
       y1="60.151062"
       x2="88.582077"
       y2="0.067099936"
       gradientUnits="userSpaceOnUse" />
    <linearGradient
       inkscape:collect="always"
       xlink:href="#linearGradient3590"
       id="linearGradient3588"
       x1="96.072693"
       y1="61.636002"
       x2="105.49311"
       y2="14.730531"
       gradientUnits="userSpaceOnUse" />
    <radialGradient
       inkscape:collect="always"
       xlink:href="#linearGradient3617"
       id="radialGradient3623"
       cx="76.71563"
       cy="-29.123859"
       fx="76.71563"
       fy="-29.123859"
       r="52.722397"
       gradientUnits="userSpaceOnUse"
       gradientTransform="matrix(1.4122625,-1.4103669,1.3893785,1.3912462,5.0076642,115.5901)" />
    <filter
       inkscape:collect="always"
       id="filter3799">
      <feGaussianBlur
         inkscape:collect="always"
         stdDeviation="1.04"
         id="feGaussianBlur3801" />
    </filter>
    <filter
       inkscape:collect="always"
       id="filter3803"
       x="-0.624"
       width="2.248"
       y="-0.052"
       height="1.104">
      <feGaussianBlur
         inkscape:collect="always"
         stdDeviation="1.04"
         id="feGaussianBlur3805" />
    </filter>
    <linearGradient
       inkscape:collect="always"
       xlink:href="#linearGradient3821"
       id="linearGradient3827"
       x1="85.672935"
       y1="-75.120644"
       x2="82.362053"
       y2="17.478315"
       gradientUnits="userSpaceOnUse" />
    <linearGradient
       inkscape:collect="always"
       xlink:href="#linearGradient3590"
       id="linearGradient3833"
       gradientUnits="userSpaceOnUse"
       x1="96.072693"
       y1="61.636002"
       x2="105.49311"
       y2="14.730531"
       gradientTransform="translate(0,2)" />
  </defs>
  <sodipodi:namedview
     id="base"
     pagecolor="#ffffff"
     bordercolor="#666666"
     borderopacity="1.0"
     gridtolerance="10000"
     guidetolerance="10"
     objecttolerance="10"
     inkscape:pageopacity="0.0"
     inkscape:pageshadow="2"
     inkscape:zoom="3.688269"
     inkscape:cx="92.33914"
     inkscape:cy="98.856138"
     inkscape:document-units="px"
     inkscape:current-layer="layer13"
     showgrid="false"
     inkscape:snap-global="true"
     inkscape:window-width="1920"
     inkscape:window-height="1176"
     inkscape:window-x="0"
     inkscape:window-y="-3"
     showborder="false"
     inkscape:showpageshadow="false">
    <inkscape:grid
       type="xygrid"
       id="grid2488"
       visible="true"
       enabled="true"
       empspacing="5"
       empcolor="#006eff"
       empopacity="0.25098039"
       spacingx="4px"
       spacingy="4px" />
  </sodipodi:namedview>
  <metadata
     id="metadata7">
    <rdf:RDF>
      <cc:Work
         rdf:about="">
        <dc:format>image/svg+xml</dc:format>
        <dc:type
           rdf:resource="http://purl.org/dc/dcmitype/StillImage" />
      </cc:Work>
    </rdf:RDF>
  </metadata>
  <g
     inkscape:groupmode="layer"
     id="layer10"
     inkscape:label="bg"
     style="display:none">
    <rect
       style="opacity:1;fill:#ffffff;fill-opacity:1;stroke:#35474e;stroke-width:0.9241311;stroke-linejoin:round;stroke-miterlimit:4;stroke-dasharray:none;stroke-opacity:1"
       id="rect3331"
       width="164.92624"
       height="171.84074"
       x="5.476891"
       y="-59.861301" />
  </g>
  <g
     inkscape:groupmode="layer"
     id="layer3"
     inkscape:label="diamond"
     style="display:none">
    <path
       style="fill:url(#linearGradient3298);fill-opacity:1;stroke:none;stroke-width:2.02900004;stroke-linejoin:round;stroke-miterlimit:4;stroke-opacity:1"
       d="M 63.199071,57.348977 L 124.97988,76.275907 L 62.102091,123.39079 L -0.7756964,76.275911 L 63.199071,57.348977 z"
       id="rect3290"
       sodipodi:nodetypes="ccccc" />
  </g>
  <g
     inkscape:groupmode="layer"
     id="layer9"
     inkscape:label="diamond big"
     style="display:none">
    <path
       style="fill:#1e9300;fill-opacity:1;fill-rule:evenodd;stroke:none;stroke-width:1px;stroke-linecap:butt;stroke-linejoin:miter;stroke-opacity:1"
       d="M 8.4379571,35.838484 L 11.347989,42.533988 L 88.630954,105.29398 L 166.69194,41.755972 L 168.66939,35.856013 L 8.4379571,35.838484 z"
       id="path3508"
       sodipodi:nodetypes="cccccc" />
    <path
       sodipodi:nodetypes="ccccc"
       id="path3258"
       d="M 89.943725,11.716453 L 168.65847,35.831197 L 88.546066,95.860132 L 8.4336661,35.831203 L 89.943725,11.716453 z"
       style="fill:url(#linearGradient3262);fill-opacity:1;stroke:none;stroke-width:2.02900004;stroke-linejoin:round;stroke-miterlimit:4;stroke-opacity:1;display:inline" />
    <path
       style="fill:#1b8600;fill-opacity:1;fill-rule:evenodd;stroke:none;stroke-width:1px;stroke-linecap:butt;stroke-linejoin:miter;stroke-opacity:1"
       d="M 88.566119,95.763272 L 88.566119,105.29398 L 166.6271,41.755972 L 168.63698,35.856013 L 88.566119,95.763272 z"
       id="path3510" />
    <path
       style="opacity:0.25104603;fill:#deff87;fill-opacity:1;fill-rule:evenodd;stroke:none;stroke-width:1px;stroke-linecap:butt;stroke-linejoin:miter;stroke-opacity:1"
       d="M 8.4952634,35.791179 L 89.538639,13.617711 L 168.5073,35.791179 L 89.927647,11.802339 L 8.4952634,35.791179 z"
       id="path3512"
       sodipodi:nodetypes="ccccc" />
  </g>
  <g
     inkscape:groupmode="layer"
     id="layer14"
     inkscape:label="normal diamond"
     style="display:inline;">
    <rect
       style="opacity:1;fill:url(#radialGradient3623);fill-opacity:1;stroke:none;stroke-width:0.50000000000000000;stroke-linecap:round;stroke-linejoin:round;stroke-miterlimit:4;stroke-dasharray:none;stroke-opacity:1"
       id="rect3597"
       width="105.44479"
       height="105.44479"
       x="9.3186293"
       y="-110.24964"
       transform="matrix(0.7071068,0.7071068,-0.7071068,0.7071068,0,0)" />
    <path
       style="fill:#005408;fill-rule:evenodd;stroke:none;stroke-width:1px;stroke-linecap:butt;stroke-linejoin:miter;stroke-opacity:1;fill-opacity:1"
       d="M 10.544478,5.4923322 L 10.065184,3.2875777 L 83.780674,70.676381 L 158.93405,3.1917188 L 159.12577,5.1088967 L 84.355827,78.153375 L 10.544478,5.4923322 z"
       id="path3613"
       sodipodi:nodetypes="ccccccc" />
    <path
       style="fill:url(#linearGradient3827);fill-rule:evenodd;stroke:none;stroke-width:1px;stroke-linecap:butt;stroke-linejoin:miter;stroke-opacity:1;fill-opacity:1;opacity:0.29707113000000002"
       d="M 14.187116,5.4923322 C 75.536809,-9.0782198 143.59663,16.036811 143.59663,16.036811 L 157.4003,3.5751545 L 84.547546,-68.319017 L 11.119632,3.7668721 L 14.187116,5.4923322 z"
       id="path3807"
       sodipodi:nodetypes="cccccc" />
  </g>
  <g
     inkscape:groupmode="layer"
     id="layer2"
     inkscape:label="V"
     style="display:none">
    <path
       style="fill:#d4d4d4;fill-opacity:1;fill-rule:evenodd;stroke:none;stroke-width:1px;stroke-linecap:butt;stroke-linejoin:miter;stroke-opacity:1"
       d="M 19.521353,43.678601 L 31.993328,95.735542 C 31.993328,95.735542 40.105152,89.828777 54.497111,70.113766 C 64.393352,56.557271 68.4603,41.373996 68.4603,41.373996 C 68.4603,41.373996 68.626083,39.739661 73.476204,38.527132 C 75.645243,37.984873 76.051938,35.544704 71.984989,35.544704 C 67.571314,35.544704 57.065336,35.1305 58.292929,36.358093 C 61.953182,40.018347 62.821568,40.586182 55.174935,55.879446 C 50.430161,65.368993 39.99166,75.129669 39.99166,75.129669 C 39.99166,75.129669 36.573204,54.414864 34.569062,42.729646 C 34.318813,41.270559 34.035916,38.927448 35.924711,37.984873 C 37.405364,37.245975 40.53392,36.764789 40.53392,35.680268 C 40.53392,33.763091 39.381176,34.225007 34.569063,34.731314 C 32.379662,34.961672 23.875126,35.187342 20.741438,35.273574 C 19.417212,35.310014 15.727764,35.650418 16.267794,36.629223 C 18.436833,40.560607 18.67124,40.130302 19.521353,43.678601 z"
       id="path3364"
       sodipodi:nodetypes="ccscsssscsssssss" />
    <text
       xml:space="preserve"
       style="font-size:12px;font-style:normal;font-weight:bold;line-height:125%;fill:#b3b3b3;fill-opacity:1;stroke:none;stroke-width:1px;stroke-linecap:butt;stroke-linejoin:miter;stroke-opacity:1;display:inline;font-family:Bitstream Vera Sans;-inkscape-font-specification:Norasi Bold Italic"
       x="43.319714"
       y="96.192589"
       id="text2504"
       sodipodi:linespacing="125%"><tspan
         sodipodi:role="line"
         id="tspan2506"
         x="43.319714"
         y="96.192589"
         style="font-size:56px;font-style:italic;font-variant:normal;font-weight:bold;font-stretch:normal;text-align:start;line-height:125%;writing-mode:lr-tb;text-anchor:start;fill:#b3b3b3;fill-opacity:1;font-family:Norasi;-inkscape-font-specification:Norasi Bold Italic">im</tspan></text>
  </g>
  <g
     inkscape:groupmode="layer"
     id="layer11"
     inkscape:label="Vim shadows"
     style="display:none">
    <path
       style="opacity:1;fill:url(#linearGradient3367);fill-opacity:1;fill-rule:evenodd;stroke:none;stroke-width:1px;stroke-linecap:butt;stroke-linejoin:miter;stroke-opacity:1;display:inline;filter:url(#filter3300)"
       d="M 37.693728,25.543151 L 37.693728,54.353205 L 44,82.959077 L 56.471976,79.119662 L 112.21085,33.814281 L 148,-52 L 116,-52 L 116,-44 L 124,-36 L 81.760672,3.0560494 L 72,-52 L 37.693728,25.543151 z"
       id="path3256"
       sodipodi:nodetypes="cccccccccccc" />
    <path
       id="path3369"
       d="M 44,84 L 56,80 L 152,-36 L 152,-44 L 148,-52 L 148,-44 L 44,84 z"
       style="opacity:0.41841006;fill:#000000;fill-opacity:1;fill-rule:evenodd;stroke:none;stroke-width:1px;stroke-linecap:butt;stroke-linejoin:miter;stroke-opacity:1;display:inline" />
    <text
       xml:space="preserve"
       style="font-size:16.67080498px;font-style:normal;font-weight:bold;line-height:125%;opacity:0.48117155;fill:#000000;fill-opacity:1;stroke:none;stroke-width:0.85023707px;stroke-linecap:butt;stroke-linejoin:miter;stroke-opacity:1;display:inline;filter:url(#filter3504);font-family:Bitstream Vera Sans;-inkscape-font-specification:Norasi Bold Italic"
       x="73.450027"
       y="82.99733"
       id="text3486"
       sodipodi:linespacing="125%"><tspan
         sodipodi:role="line"
         id="tspan3488"
         x="73.450027"
         y="82.99733"
         style="font-size:77.79708099px;font-style:italic;font-variant:normal;font-weight:bold;font-stretch:normal;text-align:start;line-height:125%;writing-mode:lr-tb;text-anchor:start;fill:#000000;fill-opacity:1;stroke:none;stroke-width:0.85023707;stroke-opacity:1;font-family:Norasi;-inkscape-font-specification:Norasi Bold Italic">im</tspan></text>
  </g>
  <g
     inkscape:groupmode="layer"
     id="layer13"
     inkscape:label="shadows"
     style="display:inline">
    <path
       style="fill:url(#linearGradient3574);fill-opacity:1;fill-rule:evenodd;stroke:none;stroke-width:1px;stroke-linecap:butt;stroke-linejoin:miter;stroke-opacity:1;filter:url(#filter3562)"
       d="M 44.095092,59.844326 L 59.720092,53.901074 L 68.634969,46.903375 C 68.634969,46.903375 62.212423,56.201688 64.896472,58.789878 C 67.580521,61.378068 73.236196,60.036043 76.399539,56.776841 C 79.562883,53.517639 81.671779,51.983896 81.671779,51.983896 L 78.987729,50.929448 C 78.987729,50.929448 74.290644,56.8727 71.894171,56.585123 C 69.497699,56.297547 79.562883,42.589725 84.068251,35.879602 C 88.573619,29.16948 112.6342,-3.0391092 112.6342,-3.0391092 L 94.51687,-14.925612 L 44.095092,59.844326 z"
       id="path3530"
       sodipodi:nodetypes="cccssccssccc" />
    <path
       style="fill:url(#linearGradient3572);fill-opacity:1;fill-rule:evenodd;stroke:none;stroke-width:1px;stroke-linecap:butt;stroke-linejoin:miter;stroke-opacity:1;filter:url(#filter3558)"
       d="M 81.959355,60.32362 L 92.216257,60.036043 C 92.216257,60.036043 98.638803,40.480829 105.06135,38.755369 C 111.48389,37.029909 109.75843,43.548313 109.75843,43.548313 L 100.7477,60.32362 L 111.0046,60.131902 C 111.0046,60.131902 117.13957,43.356596 123.94555,39.713958 C 130.75153,36.07132 124.13727,55.722393 124.13727,55.722393 C 124.13727,55.722393 123.08282,60.707056 128.16334,60.32362 C 133.24386,59.940185 140.81672,54.572086 141.48773,53.134203 C 142.15874,51.69632 139.76227,51.792178 139.76227,51.792178 C 139.76227,51.792178 135.44862,56.489264 134.68175,57.064418 C 133.91488,57.639571 132.38113,55.914111 132.38113,55.914111 C 132.38113,55.914111 137.94095,43.452455 140.43328,39.809817 C 142.92561,36.167179 130.75153,33.195553 130.75153,33.195553 C 130.75153,33.195553 127.68405,35.304449 119.82362,39.042945 C 111.96319,42.781442 110.42945,34.058283 110.42945,34.058283 C 110.42945,34.058283 110.14187,28.977761 101.32285,35.975461 C 92.503834,42.97316 93.174846,30.319786 93.174846,30.319786 L 81.959355,60.32362 z"
       id="path3532" />
    <path
       sodipodi:nodetypes="ccccccc"
       id="path3631"
       d="M 44.082822,62 L 57.782209,54.383436 L 140.08282,-38 L 140.08282,-42 L 136.08282,-50 L 136.08282,-42 L 44.082822,62 z"
       style="opacity:0.45188281;fill:#000000;fill-opacity:1;fill-rule:evenodd;stroke:none;stroke-width:1px;stroke-linecap:butt;stroke-linejoin:miter;stroke-opacity:1;display:inline;filter:url(#filter3799)" />
    <path
       sodipodi:nodetypes="ccccc"
       id="path3647"
       d="M 72.082822,-50 L 76.082822,-42 L 76.082822,-6 L 72.082822,-2 L 72.082822,-50 z"
       style="opacity:0.45188281;fill:#000000;fill-opacity:1;fill-rule:evenodd;stroke:none;stroke-width:1px;stroke-linecap:butt;stroke-linejoin:miter;stroke-opacity:1;display:inline;filter:url(#filter3803)" />
    <path
       style="fill:none;fill-rule:evenodd;stroke:#000000;stroke-width:2;stroke-linecap:butt;stroke-linejoin:miter;stroke-opacity:0.52888888;stroke-miterlimit:4;stroke-dasharray:none"
       d="M 32,-52 L 72,-52 L 76,-44 L 76,-8.6710123 L 100,-36 L 92,-44 L 92,-52 L 136,-52 L 140,-44 L 140,-40 L 57.77339,52.335506 L 44,60 L 44,-32 L 32,-40 L 32,-52 z"
       id="path3837"
       sodipodi:nodetypes="ccccccccccccccc" />
  </g>
  <g
     inkscape:groupmode="layer"
     id="layer7"
     inkscape:label="vim block"
     style="opacity:1;display:none">
    <path
       sodipodi:nodetypes="cccccccccccc"
       id="path3185"
       d="M 32,-52 L 32,-40 L 44,-32 L 44,84 L 148,-44 L 148,-52 L 116,-52 L 116,-44 L 124,-36 L 72,28 L 72,-52 L 32,-52 z"
       style="fill:url(#linearGradient3339);fill-opacity:1;fill-rule:evenodd;stroke:none;stroke-width:1px;stroke-linecap:butt;stroke-linejoin:miter;stroke-opacity:1" />
    <path
       style="opacity:0.37656902;fill:url(#linearGradient3363);fill-opacity:1;fill-rule:evenodd;stroke:none;stroke-width:1px;stroke-linecap:butt;stroke-linejoin:miter;stroke-opacity:1"
       d="M 72,28 C 72,28 66,38.133897 66,32.440169 L 66,-40 L 66,-52 L 72,-52 L 72,28 z"
       id="path3314"
       sodipodi:nodetypes="cccccc" />
    <path
       style="opacity:1;fill:#35474e;fill-opacity:1;fill-rule:evenodd;stroke:none;stroke-width:1px;stroke-linecap:butt;stroke-linejoin:miter;stroke-opacity:1"
       d="M 44,84 L 56,80 L 152,-36 L 152,-44 L 148,-52 L 148,-44 L 44,84 z"
       id="path3326" />
    <text
       sodipodi:linespacing="125%"
       id="text3304"
       y="80.99733"
       x="73.450027"
       style="font-size:16.67080498px;font-style:normal;font-weight:bold;line-height:125%;fill:#dde0e2;fill-opacity:1;stroke:#35474e;stroke-width:0.85023707px;stroke-linecap:butt;stroke-linejoin:miter;stroke-opacity:1;display:inline;font-family:Bitstream Vera Sans;-inkscape-font-specification:Norasi Bold Italic"
       xml:space="preserve"><tspan
         style="font-size:77.79708099px;font-style:italic;font-variant:normal;font-weight:bold;font-stretch:normal;text-align:start;line-height:125%;writing-mode:lr-tb;text-anchor:start;fill:#dde0e2;fill-opacity:1;stroke:#35474e;stroke-width:0.85023707;stroke-opacity:1;font-family:Norasi;-inkscape-font-specification:Norasi Bold Italic"
         y="80.99733"
         x="73.450027"
         id="tspan3306"
         sodipodi:role="line">im</tspan></text>
    <path
       style="fill:#35474e;fill-opacity:1;fill-rule:evenodd;stroke:none;stroke-width:1px;stroke-linecap:butt;stroke-linejoin:miter;stroke-opacity:1"
       d="M 72,-52 L 76,-44 L 76,23.253559 L 72,28 L 72,-52 z"
       id="path3328"
       sodipodi:nodetypes="ccccc" />
  </g>
  <g
     inkscape:groupmode="layer"
     id="layer12"
     inkscape:label="vim2 block"
     style="display:inline"
     sodipodi:insensitive="true">
    <path
       style="opacity:1;fill:#35474e;fill-opacity:1;fill-rule:evenodd;stroke:none;stroke-width:1px;stroke-linecap:butt;stroke-linejoin:miter;stroke-opacity:1;display:inline"
       d="M 72,-52 L 76,-44 L 76,-8 L 72,-4 L 72,-52 z"
       id="path3525"
       sodipodi:nodetypes="ccccc" />
    <path
       sodipodi:nodetypes="cccccccccccc"
       id="path3515"
       d="M 32,-52 L 32,-40 L 44,-32 L 44,60 L 136,-44 L 136,-52 L 92,-52 L 92,-44 L 100,-36 L 72,-4 L 72,-52 L 32,-52 z"
       style="opacity:1;fill:url(#linearGradient3339);fill-opacity:1;fill-rule:evenodd;stroke:none;stroke-width:1px;stroke-linecap:butt;stroke-linejoin:miter;stroke-opacity:1;display:inline" />
    <path
       style="opacity:0.37656902;fill:url(#linearGradient3363);fill-opacity:1;fill-rule:evenodd;stroke:none;stroke-width:1px;stroke-linecap:butt;stroke-linejoin:miter;stroke-opacity:1;display:inline"
       d="M 72,-4 L 66,2.440169 L 66,-40 L 66,-52 L 72,-52 L 72,-4 z"
       id="path3517"
       sodipodi:nodetypes="cccccc" />
    <path
       style="opacity:1;fill:#35474e;fill-opacity:1;fill-rule:evenodd;stroke:none;stroke-width:1px;stroke-linecap:butt;stroke-linejoin:miter;stroke-opacity:1;display:inline"
       d="M 44,60 L 57.699387,52.383436 L 140,-40 L 140,-44 L 136,-52 L 136,-44 L 44,60 z"
       id="path3519"
       sodipodi:nodetypes="ccccccc" />
    <text
       xml:space="preserve"
       style="font-size:16.67080498px;font-style:normal;font-weight:bold;line-height:125%;opacity:1;fill:none;fill-opacity:1;stroke:#34464d;stroke-width:2.4000001;stroke-linecap:round;stroke-linejoin:round;stroke-miterlimit:4;stroke-dasharray:none;stroke-opacity:1;display:inline;font-family:Bitstream Vera Sans;-inkscape-font-specification:Norasi Bold Italic"
       x="61.94696"
       y="61.041584"
       id="text3829"
       sodipodi:linespacing="125%"><tspan
         sodipodi:role="line"
         id="tspan3831"
         x="61.94696"
         y="61.041584"
         style="font-size:77.79708099px;font-style:italic;font-variant:normal;font-weight:bold;font-stretch:normal;text-align:start;line-height:125%;writing-mode:lr-tb;text-anchor:start;fill:none;fill-opacity:1;stroke:#34464d;stroke-width:2.4000001;stroke-linecap:round;stroke-linejoin:round;stroke-miterlimit:4;stroke-dasharray:none;stroke-opacity:1;font-family:Norasi;-inkscape-font-specification:Norasi Bold Italic">im</tspan></text>
    <text
       sodipodi:linespacing="125%"
       id="text3521"
       y="59.908371"
       x="61.94696"
       style="font-size:16.67080498px;font-style:normal;font-weight:bold;line-height:125%;opacity:1;fill:url(#linearGradient3588);fill-opacity:1;stroke:#34464d;stroke-width:0.5;stroke-linecap:round;stroke-linejoin:round;stroke-miterlimit:4;stroke-dasharray:none;stroke-opacity:1;display:inline;font-family:Bitstream Vera Sans;-inkscape-font-specification:Norasi Bold Italic"
       xml:space="preserve"><tspan
         style="font-size:77.79708099px;font-style:italic;font-variant:normal;font-weight:bold;font-stretch:normal;text-align:start;line-height:125%;writing-mode:lr-tb;text-anchor:start;fill:url(#linearGradient3588);fill-opacity:1;stroke:#34464d;stroke-width:0.5;stroke-linecap:round;stroke-linejoin:round;stroke-miterlimit:4;stroke-dasharray:none;stroke-opacity:1;font-family:Norasi;-inkscape-font-specification:Norasi Bold Italic"
         y="59.908371"
         x="61.94696"
         id="tspan3523"
         sodipodi:role="line">im</tspan></text>
  </g>
  <g
     inkscape:groupmode="layer"
     id="layer8"
     inkscape:label="block shade"
     style="display:inline">
    <path
       style="opacity:0.44769874;fill:url(#linearGradient3353);fill-opacity:1;fill-rule:evenodd;stroke:none;stroke-width:1px;stroke-linecap:butt;stroke-linejoin:miter;stroke-opacity:1"
       d="M 32,-40 L 52,-40 L 44,-32 L 32,-40 z"
       id="path3345" />
    <path
       id="path3356"
       d="M 92,-44 L 108,-44 L 100,-36 L 92,-44 z"
       style="opacity:0.44769874;fill:url(#linearGradient3358);fill-opacity:1;fill-rule:evenodd;stroke:none;stroke-width:1px;stroke-linecap:butt;stroke-linejoin:miter;stroke-opacity:1"
       sodipodi:nodetypes="cccc" />
  </g>
  <g
     inkscape:groupmode="layer"
     id="layer6"
     inkscape:label="backup"
     style="display:none">
    <g
       transform="translate(1.7640123,-8.2359877)"
       style="fill:#cdcdcd;fill-opacity:1;stroke:none;stroke-opacity:1;display:inline"
       id="g3351">
      <path
         style="fill:#cdcdcd;fill-opacity:1;fill-rule:evenodd;stroke:none;stroke-width:1.09200132px;stroke-linecap:butt;stroke-linejoin:miter;stroke-opacity:1"
         d="M 52.015334,22.404503 L 26.041912,22.404503 C 26.041912,22.404503 22.046001,22.404503 22.046001,27.179251 C 22.046001,31.953999 26.041912,31.953999 26.041912,31.953999 L 52.015334,31.953999 C 52.015334,31.953999 56.011245,31.953999 56.011245,27.179251 C 56.011245,22.404503 51.801267,22.702925 52.015334,22.404503 z"
         id="path3353"
         sodipodi:nodetypes="ccsccsc" />
      <path
         style="fill:#cdcdcd;fill-opacity:1;fill-rule:evenodd;stroke:none;stroke-width:1px;stroke-linecap:butt;stroke-linejoin:miter;stroke-opacity:1"
         d="M 28,28 L 28,100 C 28,100 28,95.323009 28,99.323009 C 28,105.92444 36.911167,106.86396 40.86273,102.84969 C 66.08551,77.228184 110.71429,30.446429 110.71429,30.446429 L 88,28 L 52,64 L 52,28 L 28,28 z"
         id="path3355"
         sodipodi:nodetypes="ccssccccc" />
      <path
         sodipodi:nodetypes="ccsccsc"
         id="path3357"
         d="M 107.95809,22.404503 L 81.984666,22.404503 C 81.984666,22.404503 77.988755,22.404503 77.988755,27.179251 C 77.988755,31.953999 81.984666,31.953999 81.984666,31.953999 L 107.95809,31.953999 C 107.95809,31.953999 111.954,31.953999 111.954,27.179251 C 111.954,22.404503 107.74402,22.702925 107.95809,22.404503 z"
         style="fill:#cdcdcd;fill-opacity:1;fill-rule:evenodd;stroke:none;stroke-width:1.09200132px;stroke-linecap:butt;stroke-linejoin:miter;stroke-opacity:1" />
    </g>
  </g>
  <g
     inkscape:groupmode="layer"
     id="layer4"
     inkscape:label="V2"
     style="display:none">
    <path
       style="fill:#cdcdcd;fill-opacity:1;fill-rule:evenodd;stroke:none;stroke-width:1px;stroke-linecap:butt;stroke-linejoin:miter;stroke-opacity:1"
       d="M -56,-76 L 0,-76 C 0,-76 5.4912145,-76.27113 4,-72 C 2.6814982,-68.223553 -12,-72 -12,-60 C -12,-56 -12,28 -12,28 L 68,-52 C 68,-52 76,-60 76,-64 C 75.151799,-75.054785 52.677825,-66.508786 52,-72 C 51.18661,-76.135565 56,-76 56,-76 L 112,-76 C 112,-76 124.35876,-76.358761 120,-72 C 93.375458,-45.375458 -4.0065779,60.012425 -4,60 C -4,60 -28,84 -44,84 C -60,84 -60,72 -60,28 C -60,-16 -60,-24 -60,-24 C -60,-24 -60,-44 -60,-48 C -60,-52 -60,-60 -64,-68 C -68,-76 -64,-76 -56,-76 z"
       id="path3311"
       sodipodi:nodetypes="ccssccccccscsscszc" />
  </g>
  <g
     inkscape:groupmode="layer"
     id="layer5"
     inkscape:label="shading"
     style="opacity:0.31799167;display:none">
    <path
       style="fill:#ffffff;fill-opacity:1;fill-rule:evenodd;stroke:none;stroke-width:1px;stroke-linecap:butt;stroke-linejoin:miter;stroke-opacity:1"
       d="M -12.471975,26.597417 C -12.471975,26.597417 4.3380785,25.241767 14.912145,16.023351 C 34.704627,2.466856 79.169931,-47.421046 81.6101,-52.301384 C 85.948178,-60.977542 70.764905,-48.776696 52.599201,-47.421047 C 40.241416,-46.498824 -13.014235,26.868547 -12.471975,26.597417 z"
       id="path3313"
       sodipodi:nodetypes="ccssc" />
    <path
       style="fill:#ffffff;fill-opacity:1;fill-rule:evenodd;stroke:none;stroke-width:1px;stroke-linecap:butt;stroke-linejoin:miter;stroke-opacity:1"
       d="M 5.9648578,-77.245335 C 2.9824289,-73.178387 1.8979093,-72.636127 -7.3205073,-71.280477 C -16.538924,-69.924828 -56.12389,-72.364997 -51.785811,-65.58675 C -47.447733,-58.808502 -47.718863,-27.899693 -48.261122,-16.241107 C -48.803382,-4.5825217 -47.447733,32.562275 -47.989993,49.914588 C -48.532252,67.266902 -45.549823,80.552267 -51.785811,83.805826 C -58.021799,87.059385 -72.391684,63.471083 -72.391684,63.471083 L -81.88123,-85.921492 L 5.9648578,-77.245335 z"
       id="path3329" />
  </g>
  <g
     inkscape:label="guide"
     inkscape:groupmode="layer"
     id="layer1"
     style="display:none">
    <image
       y="0.35713959"
       x="0"
       id="image2483"
       height="127.64286"
       width="127.64286"
       sodipodi:absref="/home/tim/Documents/Faenza/apps/48/vim.png"
       xlink:href="Faenza/apps/48/vim.png" />
  </g>
</svg>
